<svg width="51" height="51" viewBox="0 0 51 51" fill="none" xmlns="http://www.w3.org/2000/svg">
<path d="M29.4663 34.2947C29.4663 36.4486 27.714 38.201 25.5601 38.201C23.4062 38.201 21.6538 36.4486 21.6538 34.2947C21.6538 32.1408 23.4062 30.3885 25.5601 30.3885C27.714 30.3885 29.4663 32.1408 29.4663 34.2947ZM22.106 14.4314L22.77 27.7127C22.8012 28.3363 23.316 28.826 23.9404 28.826H27.1797C27.8042 28.826 28.3189 28.3363 28.3501 27.7127L29.0142 14.4314C29.0476 13.762 28.514 13.201 27.8438 13.201H23.2764C22.6062 13.201 22.0725 13.762 22.106 14.4314Z" fill="#FF3860"/>
<rect x="2.56006" y="2.70099" width="46" height="46" rx="23" stroke="#FF3860" stroke-width="4"/>
</svg>
